# Blender v2.79 (sub 0) OBJ File: ''
# www.blender.org
mtllib Circulo2.mtl
o Sphere
v -0.109202 0.471421 -0.158573
v -0.111796 0.323925 -0.377041
v -0.160701 0.162236 -0.457919
v 0.049762 -0.000000 -0.505248
v 0.045350 -0.299522 -0.412385
v 0.219863 0.302563 -0.357647
v 0.235893 -0.090874 -0.441325
v 0.092416 0.450172 -0.214522
v 0.323714 0.135771 -0.372309
v 0.281162 -0.277521 -0.324052
v 0.091374 -0.454798 -0.215364
v 0.412282 -0.067427 -0.287209
v 0.474686 0.103250 -0.148936
v 0.006627 -0.500883 -0.067290
v 0.175465 0.472222 -0.094925
v 0.468957 0.151348 0.143526
v 0.445602 -0.247405 -0.048610
v 0.280504 -0.429775 -0.033631
v 0.505775 -0.049114 0.044778
v 0.382869 0.345850 0.023557
v 0.398028 -0.138170 0.291577
v 0.308385 -0.328363 0.233434
v 0.268272 0.249867 0.353071
v 0.165406 0.434306 0.222293
v 0.249853 0.010728 0.448368
v 0.115824 -0.476332 0.140066
v 0.039932 0.197848 0.467048
v 0.109288 -0.253641 0.427989
v 0.009163 -0.380047 0.337693
v 0.004685 -0.048387 0.504311
v -0.115409 0.338222 0.358826
v -0.205241 -0.155972 0.447976
v -0.020444 0.501980 0.060036
v -0.216931 0.206247 0.418685
v -0.281368 -0.339445 0.270794
v -0.379550 0.293364 0.180626
v -0.451471 0.017882 0.250652
v -0.155166 0.461645 0.160446
v -0.460751 -0.196546 0.099226
v -0.270580 -0.426921 0.061084
v -0.078839 -0.487338 0.113534
v -0.385860 0.334576 -0.086254
v -0.503024 -0.037068 -0.119972
v -0.340118 0.288652 -0.245584
v -0.422512 0.003633 -0.287516
v -0.326916 -0.360567 -0.148737
v -0.330810 -0.196434 -0.333993
v -0.161835 -0.452172 -0.161056
v -0.170617 -0.038499 -0.476001
v -0.156168 -0.287981 -0.390003
vn 0.0801 0.4264 -0.9010
vn 0.0309 0.9881 -0.1507
vn 0.0867 0.7311 -0.6768
vn 0.3078 0.2718 -0.9118
vn 0.6598 -0.0270 -0.7510
vn 0.8299 0.1351 -0.5413
vn 0.7978 -0.4225 -0.4301
vn 0.6245 0.7000 -0.3465
vn 0.9554 -0.1375 -0.2615
vn 0.9234 0.3812 -0.0446
vn 0.2534 -0.9672 -0.0190
vn 0.8882 -0.3865 0.2483
vn 0.8365 -0.4768 0.2701
vn 0.7374 -0.6535 0.1712
vn 0.5062 -0.8225 0.2595
vn 0.9194 -0.0245 0.3926
vn 0.7775 0.1247 0.6164
vn 0.7524 0.1930 0.6298
vn 0.5233 -0.4650 0.7141
vn 0.5081 -0.3314 0.7950
vn 0.3380 -0.7095 0.6184
vn 0.2198 0.6429 0.7338
vn 0.0057 0.9252 0.3793
vn -0.0083 -0.9007 0.4344
vn 0.1933 0.1197 0.9738
vn -0.0571 -0.3734 0.9259
vn -0.2909 0.0678 0.9544
vn 0.0433 -0.9945 0.0950
vn -0.2576 -0.6138 0.7463
vn -0.4772 0.7001 0.5312
vn -0.7772 -0.3402 0.5293
vn -0.2959 0.9551 -0.0134
vn -0.8722 -0.4600 -0.1665
vn -0.7707 -0.6371 0.0055
vn -0.2531 -0.9663 -0.0472
vn -0.8387 -0.2753 -0.4699
vn -0.4092 0.7585 -0.5072
vn -0.5183 -0.6455 -0.5610
vn -0.5851 0.1014 -0.8046
vn 0.0965 0.3921 -0.9149
vn 0.0444 0.9765 -0.2109
vn 0.3790 0.1320 -0.9159
vn 0.1791 -0.2938 -0.9390
vn 0.3511 -0.4356 -0.8288
vn 0.4233 0.7920 -0.4399
vn 0.3034 -0.7126 -0.6325
vn 0.6520 -0.2836 -0.7031
vn 0.4902 -0.7724 -0.4038
vn -0.9533 0.2944 0.0680
vn 0.6839 -0.6468 -0.3376
vn 0.9514 -0.1669 -0.2587
vn 0.2653 -0.9532 -0.1448
vn 0.9825 0.1860 -0.0114
vn 0.4659 0.8767 0.1196
vn 0.2432 0.9622 0.1227
vn 0.7108 0.5694 0.4130
vn 0.6400 0.6488 0.4116
vn 0.3246 -0.7695 0.5501
vn 0.3636 0.3206 0.8747
vn 0.2661 -0.2139 0.9399
vn 0.1162 0.6839 0.7203
vn -0.1446 0.4988 0.8546
vn -0.1768 0.1720 0.9691
vn -0.0306 0.8459 0.5324
vn -0.1076 -0.5200 0.8473
vn -0.2307 -0.8393 0.4923
vn -0.7176 -0.3063 0.6255
vn -0.4993 0.6460 0.5774
vn -0.6053 0.0447 0.7947
vn -0.3663 -0.8653 0.3421
vn -0.7131 0.3418 0.6122
vn -0.7314 -0.6419 0.2301
vn -0.5864 0.7983 0.1371
vn -0.8862 0.3106 -0.3439
vn -0.9874 -0.0606 0.1463
vn -0.2918 -0.9559 -0.0342
vn -0.4509 0.8918 -0.0376
vn 0.7426 0.5514 -0.3802
vn -0.4884 -0.8611 -0.1412
vn -0.8336 -0.4221 -0.3564
vn -0.1119 -0.7930 -0.5988
vn -0.4878 0.7915 -0.3682
vn -0.6065 -0.0946 -0.7894
vn -0.4413 -0.7240 -0.5301
vn -0.4881 0.5040 -0.7125
vn -0.6392 0.2896 -0.7125
vn -0.4358 -0.3158 -0.8428
vn -0.0750 -0.2943 -0.9528
vn -0.0824 -0.9372 -0.3388
vn -0.1474 0.0960 -0.9844
vn -0.0676 0.8273 -0.5577
vn -0.9574 0.2735 0.0926
vn -0.8847 0.3073 -0.3505
vn 0.7480 0.5037 -0.4322
vn -0.1327 -0.8039 -0.5798
vn -0.1228 -0.3298 -0.9360
usemtl None
s off
f 2//1 6//1 3//1
f 1//2 33//2 15//2
f 8//3 6//3 2//3
f 6//4 9//4 4//4
f 7//5 9//5 12//5
f 9//6 13//6 12//6
f 12//7 17//7 10//7
f 15//8 20//8 6//8
f 13//9 19//9 12//9
f 20//10 16//10 13//10
f 14//11 18//11 26//11
f 19//12 21//12 17//12
f 17//13 21//13 22//13
f 17//14 22//14 18//14
f 18//15 22//15 26//15
f 16//16 21//16 19//16
f 16//17 25//17 21//17
f 16//18 23//18 25//18
f 22//19 21//19 28//19
f 25//20 28//20 21//20
f 28//21 29//21 22//21
f 24//22 27//22 23//22
f 33//23 38//23 24//23
f 29//24 41//24 26//24
f 27//25 30//25 25//25
f 30//26 32//26 28//26
f 34//27 32//27 30//27
f 14//28 26//28 41//28
f 32//29 35//29 29//29
f 31//30 38//30 36//30
f 37//31 39//31 35//31
f 38//32 33//32 1//32
f 39//33 43//33 46//33
f 39//34 46//34 40//34
f 48//35 14//35 41//35
f 45//36 47//36 43//36
f 1//37 2//37 44//37
f 47//38 50//38 46//38
f 45//39 3//39 49//39
f 3//40 6//40 4//40
f 1//41 15//41 8//41
f 4//42 9//42 7//42
f 5//43 4//43 7//43
f 5//44 7//44 10//44
f 8//45 15//45 6//45
f 5//46 10//46 11//46
f 7//47 12//47 10//47
f 11//48 10//48 18//48
f 43//49 36//49 42//49
f 18//50 10//50 17//50
f 12//51 19//51 17//51
f 14//52 11//52 18//52
f 13//53 16//53 19//53
f 15//54 24//54 20//54
f 15//55 33//55 24//55
f 20//56 23//56 16//56
f 20//57 24//57 23//57
f 26//58 22//58 29//58
f 25//59 23//59 27//59
f 25//60 30//60 28//60
f 24//61 31//61 27//61
f 27//62 31//62 34//62
f 27//63 34//63 30//63
f 31//64 24//64 38//64
f 28//65 32//65 29//65
f 41//66 29//66 35//66
f 32//67 37//67 35//67
f 34//68 31//68 36//68
f 32//69 34//69 37//69
f 41//70 35//70 40//70
f 37//71 34//71 36//71
f 35//72 39//72 40//72
f 36//73 38//73 42//73
f 44//74 43//74 42//74
f 39//75 37//75 43//75
f 40//76 48//76 41//76
f 38//77 1//77 42//77
f 13//78 6//78 20//78
f 48//79 40//79 46//79
f 46//80 43//80 47//80
f 11//81 50//81 5//81
f 42//82 1//82 44//82
f 45//83 49//83 47//83
f 48//84 46//84 50//84
f 44//85 2//85 3//85
f 45//86 44//86 3//86
f 47//87 49//87 50//87
f 5//88 49//88 4//88
f 14//89 48//89 11//89
f 49//90 3//90 4//90
f 2//91 1//91 8//91
f 43//92 37//92 36//92
f 44//93 45//93 43//93
f 13//94 9//94 6//94
f 11//95 48//95 50//95
f 5//96 50//96 49//96
